<svg width="16" height="16" viewBox="0 0 16 16" fill="none" xmlns="http://www.w3.org/2000/svg">
<path d="M7.175 15.475L0.225 8.52499C0.141667 8.44165 0.0833335 8.35832 0.0500002 8.27499C0.0166669 8.19165 0 8.09999 0 7.99999C0 7.89999 0.0166669 7.80832 0.0500002 7.72499C0.0833335 7.64165 0.141667 7.55832 0.225 7.47499L7.2 0.499988C7.33333 0.366654 7.5 0.299988 7.7 0.299988C7.9 0.299988 8.075 0.374988 8.225 0.524988C8.375 0.674988 8.45 0.849988 8.45 1.04999C8.45 1.24999 8.375 1.42499 8.225 1.57499L2.55 7.24999H14.95C15.1667 7.24999 15.3458 7.32082 15.4875 7.46249C15.6292 7.60415 15.7 7.78332 15.7 7.99999C15.7 8.21665 15.6292 8.39582 15.4875 8.53749C15.3458 8.67915 15.1667 8.74999 14.95 8.74999H2.55L8.25 14.45C8.38333 14.5833 8.45 14.75 8.45 14.95C8.45 15.15 8.375 15.325 8.225 15.475C8.075 15.625 7.9 15.7 7.7 15.7C7.5 15.7 7.325 15.625 7.175 15.475Z" fill="#6B7380"/>
</svg>
