<svg width="16" height="16" viewBox="0 0 16 16" fill="none" xmlns="http://www.w3.org/2000/svg">
<path d="M7.49961 15.375C7.36628 15.2417 7.29961 15.0708 7.29961 14.8625C7.29961 14.6542 7.36628 14.4833 7.49961 14.35L13.1496 8.69999H0.824609C0.607943 8.69999 0.432943 8.63333 0.29961 8.49999C0.166276 8.36666 0.0996094 8.19999 0.0996094 7.99999C0.0996094 7.78333 0.166276 7.60833 0.29961 7.47499C0.432943 7.34166 0.607943 7.27499 0.824609 7.27499H13.1496L7.49961 1.62499C7.36628 1.49166 7.29961 1.32083 7.29961 1.11249C7.29961 0.904161 7.36628 0.733327 7.49961 0.599994C7.63294 0.46666 7.80378 0.399994 8.01211 0.399994C8.22044 0.399994 8.38294 0.46666 8.49961 0.599994L15.4246 7.49999C15.4913 7.56666 15.5413 7.64166 15.5746 7.72499C15.6079 7.80833 15.6246 7.89999 15.6246 7.99999C15.6246 8.08333 15.6079 8.16666 15.5746 8.24999C15.5413 8.33333 15.4913 8.41666 15.4246 8.49999L8.49961 15.4C8.38294 15.5333 8.22044 15.5958 8.01211 15.5875C7.80378 15.5792 7.63294 15.5083 7.49961 15.375Z" fill="white"/>
</svg>
