<svg width="16" height="16" viewBox="0 0 16 16" fill="none" xmlns="http://www.w3.org/2000/svg">
<path d="M1 8C1 4.134 4.134 1 8 1C11.866 1 15 4.134 15 8C15 11.866 11.866 15 8 15C4.134 15 1 11.866 1 8Z" fill="#336791"/>
<path d="M5.19169 9.02534C5.19169 8.83676 5.14295 8.6948 5.04547 8.59939C4.95011 8.50195 4.77528 8.40129 4.52098 8.29741C4.05689 8.12157 3.72313 7.91599 3.51968 7.68077C3.31625 7.44342 3.21453 7.1637 3.21453 6.84158C3.21453 6.45166 3.35227 6.13909 3.62776 5.90386C3.90537 5.66652 4.25715 5.54785 4.6831 5.54785C4.96706 5.54785 5.2203 5.60825 5.44281 5.72904C5.66532 5.84771 5.83591 6.01618 5.95458 6.23445C6.07537 6.45273 6.13577 6.70067 6.13577 6.97827H5.2044C5.2044 6.76212 5.15778 6.59789 5.06454 6.48557C4.97342 6.37114 4.84097 6.31392 4.6672 6.31392C4.50403 6.31392 4.37688 6.36266 4.28576 6.46014C4.19463 6.5555 4.14908 6.68477 4.14908 6.84795C4.14908 6.9751 4.19993 7.09059 4.30165 7.19443C4.40337 7.29614 4.5835 7.4021 4.84203 7.5123C5.29341 7.67547 5.62082 7.87573 5.82425 8.1131C6.02981 8.3504 6.13259 8.65238 6.13259 9.01897C6.13259 9.42161 6.00438 9.73633 5.74797 9.96306C5.49155 10.1899 5.14295 10.3032 4.70217 10.3032C4.40337 10.3032 4.13106 10.2417 3.88524 10.1188C3.63942 9.99596 3.44658 9.82005 3.30672 9.59115C3.16897 9.36232 3.1001 9.09212 3.1001 8.78062H4.03782C4.03782 9.0476 4.08974 9.2415 4.19357 9.36232C4.29741 9.48307 4.46695 9.54348 4.70217 9.54348C5.02851 9.54348 5.19169 9.37079 5.19169 9.02534Z" fill="white"/>
<path d="M10.0073 8.28474C10.0073 9.0497 9.80074 9.60599 9.38746 9.95354L10.0264 10.5257L9.43835 11.0661L8.58645 10.2873L8.34166 10.3032C7.81825 10.3032 7.4082 10.1262 7.11152 9.77238C6.81696 9.41636 6.66862 8.92468 6.6665 8.29741V7.57269C6.6665 6.93695 6.81378 6.44107 7.10834 6.08505C7.4029 5.72692 7.8119 5.54785 8.33536 5.54785C8.84601 5.54785 9.24977 5.71951 9.54643 6.06281C9.84309 6.40611 9.99674 6.88821 10.0073 7.50912V8.28474ZM9.06959 7.56634C9.06959 7.14462 9.00918 6.83311 8.88843 6.63179C8.76761 6.43047 8.5833 6.32981 8.33536 6.32981C8.08742 6.32981 7.90408 6.42835 7.78541 6.62544C7.66674 6.82039 7.60528 7.11813 7.60104 7.51865V8.28474C7.60104 8.70852 7.66144 9.02114 7.78223 9.22246C7.90514 9.42378 8.09162 9.52444 8.34166 9.52444C8.5854 9.52444 8.76656 9.42483 8.88521 9.22561C9.00603 9.02429 9.06749 8.71811 9.06959 8.307V7.56634Z" fill="white"/>
<path d="M11.616 9.46491H13.2561V10.2405H10.6814V5.6123H11.616V9.46491Z" fill="white"/>
</svg>
