<svg id="SvgjsSvg1001" xmlns="http://www.w3.org/2000/svg" viewBox="0 0 60 60" width="60px" height="60px" version="1.1" xmlns:xlink="http://www.w3.org/1999/xlink" xmlns:svgjs="http://svgjs.com/svgjs"><defs id="SvgjsDefs1002"></defs><g id="SvgjsG1008" transform="matrix(1,0,0,1,0,0)"><svg xmlns="http://www.w3.org/2000/svg" enable-background="new 0 0 24 24" viewBox="0 0 24 24" width="60px" height="60px"><path d="M12,2L12,2C6.5,2,2,6.5,2,12s4.5,10,10,10s10-4.5,10-10C22,6.5,17.5,2,12,2z M17,12c0,2.8-2.2,5-5,5c-2.8,0-5-2.2-5-5c0-2.8,2.2-5,5-5C14.8,7,17,9.2,17,12L17,12z" fill="#0a297a" class="color000 svgShape"></path></svg></g></svg>